<?xml version="1.0" standalone="no"?>
<!DOCTYPE svg PUBLIC "-//W3C//DTD SVG 1.1//EN"
 "http://www.w3.org/Graphics/SVG/1.1/DTD/svg11.dtd">

<svg version="1.1" xmlns="http://www.w3.org/2000/svg"
  xmlns:xlink="http://www.w3.org/1999/xlink">
<!-- automatically generated by aafigure -->
<text x="252.0" y="53.9" font-family="monospace" font-size="14.0" fill="#000000" >
  root
</text>
<text x="378.0" y="193.9" font-family="monospace" font-size="14.0" fill="#000000" >
  3 =&lt;
</text>
<text x="504.0" y="319.9" font-family="monospace" font-size="14.0" fill="#000000" >
  6 =&lt;
</text>
<text x="546.0" y="347.9" font-family="monospace" font-size="14.0" fill="#000000" >
  Rotterdam
</text>
<line x1="231.0" y1="35.0" x2="357.0" y2="35.0" stroke="#000000" stroke-width="2.0" />
<line x1="231.0" y1="35.0" x2="231.0" y2="63.0" stroke="#000000" stroke-width="2.0" />
<line x1="357.0" y1="35.0" x2="357.0" y2="63.0" stroke="#000000" stroke-width="2.0" />
<line x1="231.0" y1="63.0" x2="357.0" y2="63.0" stroke="#000000" stroke-width="2.0" />
<line x1="231.0" y1="63.0" x2="231.0" y2="91.0" stroke="#000000" stroke-width="2.0" />
<line x1="357.0" y1="63.0" x2="357.0" y2="91.0" stroke="#000000" stroke-width="2.0" />
<line x1="231.0" y1="91.0" x2="357.0" y2="91.0" stroke="#000000" stroke-width="2.0" />
<line x1="343.0" y1="98.0" x2="343.0" y2="133.0" stroke="#000000" stroke-width="2.0" />
<g>
    <circle cx="245.0" cy="105.0" r="3.5" stroke="#000000" stroke-width="2.0" fill="#000000" />
    <line x1="245.0" y1="105.0" x2="245.0" y2="133.0" stroke="#000000" stroke-width="2.0" />
</g>
<line x1="119.0" y1="133.0" x2="245.0" y2="133.0" stroke="#000000" stroke-width="2.0" />
<line x1="343.0" y1="133.0" x2="413.0" y2="133.0" stroke="#000000" stroke-width="2.0" />
<g>
    <line x1="119.0" y1="168.0" x2="115.5" y2="157.5" stroke="#000000" stroke-width="2.0" />
    <line x1="119.0" y1="168.0" x2="122.5" y2="157.5" stroke="#000000" stroke-width="2.0" />
    <line x1="119.0" y1="133.0" x2="119.0" y2="168.0" stroke="#000000" stroke-width="2.0" />
</g>
<g>
    <line x1="413.0" y1="168.0" x2="409.5" y2="157.5" stroke="#000000" stroke-width="2.0" />
    <line x1="413.0" y1="168.0" x2="416.5" y2="157.5" stroke="#000000" stroke-width="2.0" />
    <line x1="413.0" y1="133.0" x2="413.0" y2="168.0" stroke="#000000" stroke-width="2.0" />
</g>
<line x1="35.0" y1="175.0" x2="273.0" y2="175.0" stroke="#000000" stroke-width="2.0" />
<line x1="357.0" y1="175.0" x2="469.0" y2="175.0" stroke="#000000" stroke-width="2.0" />
<line x1="35.0" y1="175.0" x2="35.0" y2="203.0" stroke="#000000" stroke-width="2.0" />
<line x1="273.0" y1="175.0" x2="273.0" y2="203.0" stroke="#000000" stroke-width="2.0" />
<line x1="357.0" y1="175.0" x2="357.0" y2="203.0" stroke="#000000" stroke-width="2.0" />
<line x1="469.0" y1="175.0" x2="469.0" y2="203.0" stroke="#000000" stroke-width="2.0" />
<line x1="35.0" y1="203.0" x2="91.0" y2="203.0" stroke="#000000" stroke-width="2.0" />
<line x1="91.0" y1="203.0" x2="273.0" y2="203.0" stroke="#000000" stroke-width="2.0" />
<line x1="357.0" y1="203.0" x2="469.0" y2="203.0" stroke="#000000" stroke-width="2.0" />
<line x1="35.0" y1="203.0" x2="35.0" y2="231.0" stroke="#000000" stroke-width="2.0" />
<line x1="91.0" y1="203.0" x2="91.0" y2="231.0" stroke="#000000" stroke-width="2.0" />
<line x1="273.0" y1="203.0" x2="273.0" y2="231.0" stroke="#000000" stroke-width="2.0" />
<line x1="357.0" y1="203.0" x2="357.0" y2="231.0" stroke="#000000" stroke-width="2.0" />
<line x1="469.0" y1="203.0" x2="469.0" y2="231.0" stroke="#000000" stroke-width="2.0" />
<line x1="35.0" y1="231.0" x2="91.0" y2="231.0" stroke="#000000" stroke-width="2.0" />
<line x1="91.0" y1="231.0" x2="273.0" y2="231.0" stroke="#000000" stroke-width="2.0" />
<line x1="357.0" y1="231.0" x2="469.0" y2="231.0" stroke="#000000" stroke-width="2.0" />
<line x1="35.0" y1="231.0" x2="35.0" y2="259.0" stroke="#000000" stroke-width="2.0" />
<line x1="91.0" y1="231.0" x2="91.0" y2="259.0" stroke="#000000" stroke-width="2.0" />
<line x1="273.0" y1="231.0" x2="273.0" y2="259.0" stroke="#000000" stroke-width="2.0" />
<g>
    <line x1="371.0" y1="294.0" x2="367.5" y2="283.5" stroke="#000000" stroke-width="2.0" />
    <line x1="371.0" y1="294.0" x2="374.5" y2="283.5" stroke="#000000" stroke-width="2.0" />
    <line x1="371.0" y1="238.0" x2="371.0" y2="294.0" stroke="#000000" stroke-width="2.0" />
</g>
<line x1="455.0" y1="238.0" x2="455.0" y2="259.0" stroke="#000000" stroke-width="2.0" />
<line x1="35.0" y1="259.0" x2="91.0" y2="259.0" stroke="#000000" stroke-width="2.0" />
<line x1="91.0" y1="259.0" x2="273.0" y2="259.0" stroke="#000000" stroke-width="2.0" />
<line x1="455.0" y1="259.0" x2="553.0" y2="259.0" stroke="#000000" stroke-width="2.0" />
<g>
    <line x1="553.0" y1="294.0" x2="549.5" y2="283.5" stroke="#000000" stroke-width="2.0" />
    <line x1="553.0" y1="294.0" x2="556.5" y2="283.5" stroke="#000000" stroke-width="2.0" />
    <line x1="553.0" y1="259.0" x2="553.0" y2="294.0" stroke="#000000" stroke-width="2.0" />
</g>
<g>
    <circle cx="105.0" cy="273.0" r="3.5" stroke="#000000" stroke-width="2.0" fill="#000000" />
    <line x1="105.0" y1="273.0" x2="105.0" y2="315.0" stroke="#000000" stroke-width="2.0" />
</g>
<line x1="161.0" y1="301.0" x2="399.0" y2="301.0" stroke="#000000" stroke-width="2.0" />
<line x1="483.0" y1="301.0" x2="707.0" y2="301.0" stroke="#000000" stroke-width="2.0" />
<g>
    <line x1="154.0" y1="315.0" x2="143.5" y2="318.5" stroke="#000000" stroke-width="2.0" />
    <line x1="154.0" y1="315.0" x2="143.5" y2="311.5" stroke="#000000" stroke-width="2.0" />
    <line x1="105.0" y1="315.0" x2="154.0" y2="315.0" stroke="#000000" stroke-width="2.0" />
</g>
<line x1="161.0" y1="301.0" x2="161.0" y2="329.0" stroke="#000000" stroke-width="2.0" />
<line x1="399.0" y1="301.0" x2="399.0" y2="329.0" stroke="#000000" stroke-width="2.0" />
<g>
    <line x1="406.0" y1="315.0" x2="416.5" y2="311.5" stroke="#000000" stroke-width="2.0" />
    <line x1="406.0" y1="315.0" x2="416.5" y2="318.5" stroke="#000000" stroke-width="2.0" />
    <line x1="476.0" y1="315.0" x2="465.5" y2="318.5" stroke="#000000" stroke-width="2.0" />
    <line x1="476.0" y1="315.0" x2="465.5" y2="311.5" stroke="#000000" stroke-width="2.0" />
    <line x1="406.0" y1="315.0" x2="476.0" y2="315.0" stroke="#000000" stroke-width="2.0" />
</g>
<line x1="483.0" y1="301.0" x2="483.0" y2="329.0" stroke="#000000" stroke-width="2.0" />
<line x1="707.0" y1="301.0" x2="707.0" y2="329.0" stroke="#000000" stroke-width="2.0" />
<g>
    <line x1="91.0" y1="322.0" x2="91.0" y2="336.0" stroke="#000000" stroke-width="2.0" />
    <line x1="84.0" y1="329.0" x2="98.0" y2="329.0" stroke="#000000" stroke-width="2.0" />
    <line x1="105.0" y1="322.0" x2="105.0" y2="336.0" stroke="#000000" stroke-width="2.0" />
    <line x1="98.0" y1="329.0" x2="112.0" y2="329.0" stroke="#000000" stroke-width="2.0" />
</g>
<line x1="161.0" y1="329.0" x2="217.0" y2="329.0" stroke="#000000" stroke-width="2.0" />
<line x1="217.0" y1="329.0" x2="399.0" y2="329.0" stroke="#000000" stroke-width="2.0" />
<line x1="483.0" y1="329.0" x2="539.0" y2="329.0" stroke="#000000" stroke-width="2.0" />
<line x1="539.0" y1="329.0" x2="707.0" y2="329.0" stroke="#000000" stroke-width="2.0" />
<line x1="161.0" y1="329.0" x2="161.0" y2="357.0" stroke="#000000" stroke-width="2.0" />
<line x1="217.0" y1="329.0" x2="217.0" y2="357.0" stroke="#000000" stroke-width="2.0" />
<line x1="399.0" y1="329.0" x2="399.0" y2="357.0" stroke="#000000" stroke-width="2.0" />
<line x1="483.0" y1="329.0" x2="483.0" y2="357.0" stroke="#000000" stroke-width="2.0" />
<line x1="539.0" y1="329.0" x2="539.0" y2="357.0" stroke="#000000" stroke-width="2.0" />
<line x1="707.0" y1="329.0" x2="707.0" y2="357.0" stroke="#000000" stroke-width="2.0" />
<line x1="161.0" y1="357.0" x2="217.0" y2="357.0" stroke="#000000" stroke-width="2.0" />
<line x1="217.0" y1="357.0" x2="399.0" y2="357.0" stroke="#000000" stroke-width="2.0" />
<line x1="483.0" y1="357.0" x2="539.0" y2="357.0" stroke="#000000" stroke-width="2.0" />
<line x1="539.0" y1="357.0" x2="707.0" y2="357.0" stroke="#000000" stroke-width="2.0" />
<line x1="161.0" y1="357.0" x2="161.0" y2="385.0" stroke="#000000" stroke-width="2.0" />
<line x1="217.0" y1="357.0" x2="217.0" y2="385.0" stroke="#000000" stroke-width="2.0" />
<line x1="399.0" y1="357.0" x2="399.0" y2="385.0" stroke="#000000" stroke-width="2.0" />
<line x1="161.0" y1="385.0" x2="217.0" y2="385.0" stroke="#000000" stroke-width="2.0" />
<line x1="217.0" y1="385.0" x2="399.0" y2="385.0" stroke="#000000" stroke-width="2.0" />
<line x1="161.0" y1="385.0" x2="161.0" y2="413.0" stroke="#000000" stroke-width="2.0" />
<line x1="217.0" y1="385.0" x2="217.0" y2="413.0" stroke="#000000" stroke-width="2.0" />
<line x1="399.0" y1="385.0" x2="399.0" y2="413.0" stroke="#000000" stroke-width="2.0" />
<line x1="161.0" y1="413.0" x2="217.0" y2="413.0" stroke="#000000" stroke-width="2.0" />
<line x1="217.0" y1="413.0" x2="399.0" y2="413.0" stroke="#000000" stroke-width="2.0" />
<text x="28.0" y="11.9" font-family="monospace" font-size="14.0" fill="#000000" >
  :textual:
</text>
<text x="280.0" y="81.9" font-family="monospace" font-size="14.0" fill="#000000" >
  3
</text>
<text x="112.0" y="109.9" font-family="monospace" font-size="14.0" fill="#000000" >
  (1) 2&lt;3
</text>
<text x="70.0" y="193.9" font-family="monospace" font-size="14.0" fill="#000000" >
  &lt; 3
</text>
<text x="56.0" y="221.9" font-family="monospace" font-size="14.0" fill="#000000" >
  1
</text>
<text x="112.0" y="221.9" font-family="monospace" font-size="14.0" fill="#000000" >
  Kabul
</text>
<text x="406.0" y="221.9" font-family="monospace" font-size="14.0" fill="#000000" >
  6
</text>
<text x="56.0" y="249.9" font-family="monospace" font-size="14.0" fill="#000000" >
  2
</text>
<text x="112.0" y="249.9" font-family="monospace" font-size="14.0" fill="#000000" >
  Qandahar
</text>
<text x="154.0" y="277.9" font-family="monospace" font-size="14.0" fill="#000000" >
  (2) find
</text>
<text x="196.0" y="319.9" font-family="monospace" font-size="14.0" fill="#000000" >
  &lt; 6
</text>
<text x="0.0" y="333.9" font-family="monospace" font-size="14.0" fill="#000000" >
  (3) fo
</text>
<text x="112.0" y="333.9" font-family="monospace" font-size="14.0" fill="#000000" >
  ow
</text>
<text x="56.0" y="347.9" font-family="monospace" font-size="14.0" fill="#000000" >
  link
</text>
<text x="182.0" y="347.9" font-family="monospace" font-size="14.0" fill="#000000" >
  3
</text>
<text x="238.0" y="347.9" font-family="monospace" font-size="14.0" fill="#000000" >
  Herat
</text>
<text x="504.0" y="347.9" font-family="monospace" font-size="14.0" fill="#000000" >
  6
</text>
<text x="182.0" y="375.9" font-family="monospace" font-size="14.0" fill="#000000" >
  4
</text>
<text x="238.0" y="375.9" font-family="monospace" font-size="14.0" fill="#000000" >
  Mazar
</text>
<text x="182.0" y="403.9" font-family="monospace" font-size="14.0" fill="#000000" >
  5
</text>
<text x="238.0" y="403.9" font-family="monospace" font-size="14.0" fill="#000000" >
  Amsterdam
</text>
</svg>
