<?xml version="1.0" standalone="no"?>
<!DOCTYPE svg PUBLIC "-//W3C//DTD SVG 1.1//EN"
 "http://www.w3.org/Graphics/SVG/1.1/DTD/svg11.dtd">

<svg version="1.1" xmlns="http://www.w3.org/2000/svg"
  xmlns:xlink="http://www.w3.org/1999/xlink">
<!-- automatically generated by aafigure -->
<text x="224.0" y="25.9" font-family="monospace" font-size="14.0" fill="#000000" >
  root
</text>
<text x="350.0" y="165.9" font-family="monospace" font-size="14.0" fill="#000000" >
  3 =&lt;
</text>
<text x="476.0" y="291.9" font-family="monospace" font-size="14.0" fill="#000000" >
  6 =&lt;
</text>
<text x="518.0" y="319.9" font-family="monospace" font-size="14.0" fill="#000000" >
  Rotterdam
</text>
<line x1="203.0" y1="7.0" x2="329.0" y2="7.0" stroke="#000000" stroke-width="2.0" />
<line x1="203.0" y1="7.0" x2="203.0" y2="35.0" stroke="#000000" stroke-width="2.0" />
<line x1="329.0" y1="7.0" x2="329.0" y2="35.0" stroke="#000000" stroke-width="2.0" />
<line x1="203.0" y1="35.0" x2="329.0" y2="35.0" stroke="#000000" stroke-width="2.0" />
<line x1="203.0" y1="35.0" x2="203.0" y2="63.0" stroke="#000000" stroke-width="2.0" />
<line x1="329.0" y1="35.0" x2="329.0" y2="63.0" stroke="#000000" stroke-width="2.0" />
<line x1="203.0" y1="63.0" x2="329.0" y2="63.0" stroke="#000000" stroke-width="2.0" />
<line x1="217.0" y1="70.0" x2="217.0" y2="105.0" stroke="#000000" stroke-width="2.0" />
<g>
    <circle cx="315.0" cy="77.0" r="3.5" stroke="#000000" stroke-width="2.0" fill="#000000" />
    <line x1="315.0" y1="77.0" x2="315.0" y2="105.0" stroke="#000000" stroke-width="2.0" />
</g>
<line x1="91.0" y1="105.0" x2="217.0" y2="105.0" stroke="#000000" stroke-width="2.0" />
<line x1="315.0" y1="105.0" x2="385.0" y2="105.0" stroke="#000000" stroke-width="2.0" />
<g>
    <line x1="91.0" y1="140.0" x2="87.5" y2="129.5" stroke="#000000" stroke-width="2.0" />
    <line x1="91.0" y1="140.0" x2="94.5" y2="129.5" stroke="#000000" stroke-width="2.0" />
    <line x1="91.0" y1="105.0" x2="91.0" y2="140.0" stroke="#000000" stroke-width="2.0" />
</g>
<g>
    <line x1="385.0" y1="140.0" x2="381.5" y2="129.5" stroke="#000000" stroke-width="2.0" />
    <line x1="385.0" y1="140.0" x2="388.5" y2="129.5" stroke="#000000" stroke-width="2.0" />
    <line x1="385.0" y1="105.0" x2="385.0" y2="140.0" stroke="#000000" stroke-width="2.0" />
</g>
<line x1="7.0" y1="147.0" x2="245.0" y2="147.0" stroke="#000000" stroke-width="2.0" />
<line x1="329.0" y1="147.0" x2="441.0" y2="147.0" stroke="#000000" stroke-width="2.0" />
<line x1="7.0" y1="147.0" x2="7.0" y2="175.0" stroke="#000000" stroke-width="2.0" />
<line x1="245.0" y1="147.0" x2="245.0" y2="175.0" stroke="#000000" stroke-width="2.0" />
<line x1="329.0" y1="147.0" x2="329.0" y2="175.0" stroke="#000000" stroke-width="2.0" />
<line x1="441.0" y1="147.0" x2="441.0" y2="175.0" stroke="#000000" stroke-width="2.0" />
<line x1="7.0" y1="175.0" x2="63.0" y2="175.0" stroke="#000000" stroke-width="2.0" />
<line x1="63.0" y1="175.0" x2="245.0" y2="175.0" stroke="#000000" stroke-width="2.0" />
<line x1="329.0" y1="175.0" x2="441.0" y2="175.0" stroke="#000000" stroke-width="2.0" />
<line x1="7.0" y1="175.0" x2="7.0" y2="203.0" stroke="#000000" stroke-width="2.0" />
<line x1="63.0" y1="175.0" x2="63.0" y2="203.0" stroke="#000000" stroke-width="2.0" />
<line x1="245.0" y1="175.0" x2="245.0" y2="203.0" stroke="#000000" stroke-width="2.0" />
<line x1="329.0" y1="175.0" x2="329.0" y2="203.0" stroke="#000000" stroke-width="2.0" />
<line x1="441.0" y1="175.0" x2="441.0" y2="203.0" stroke="#000000" stroke-width="2.0" />
<line x1="7.0" y1="203.0" x2="63.0" y2="203.0" stroke="#000000" stroke-width="2.0" />
<line x1="63.0" y1="203.0" x2="245.0" y2="203.0" stroke="#000000" stroke-width="2.0" />
<line x1="329.0" y1="203.0" x2="441.0" y2="203.0" stroke="#000000" stroke-width="2.0" />
<line x1="7.0" y1="203.0" x2="7.0" y2="231.0" stroke="#000000" stroke-width="2.0" />
<line x1="63.0" y1="203.0" x2="63.0" y2="231.0" stroke="#000000" stroke-width="2.0" />
<line x1="245.0" y1="203.0" x2="245.0" y2="231.0" stroke="#000000" stroke-width="2.0" />
<line x1="427.0" y1="210.0" x2="427.0" y2="231.0" stroke="#000000" stroke-width="2.0" />
<line x1="7.0" y1="231.0" x2="63.0" y2="231.0" stroke="#000000" stroke-width="2.0" />
<line x1="63.0" y1="231.0" x2="245.0" y2="231.0" stroke="#000000" stroke-width="2.0" />
<g>
    <circle cx="343.0" cy="217.0" r="3.5" stroke="#000000" stroke-width="2.0" fill="#000000" />
    <line x1="343.0" y1="266.0" x2="339.5" y2="255.5" stroke="#000000" stroke-width="2.0" />
    <line x1="343.0" y1="266.0" x2="346.5" y2="255.5" stroke="#000000" stroke-width="2.0" />
    <line x1="343.0" y1="217.0" x2="343.0" y2="266.0" stroke="#000000" stroke-width="2.0" />
</g>
<line x1="427.0" y1="231.0" x2="525.0" y2="231.0" stroke="#000000" stroke-width="2.0" />
<g>
    <line x1="525.0" y1="266.0" x2="521.5" y2="255.5" stroke="#000000" stroke-width="2.0" />
    <line x1="525.0" y1="266.0" x2="528.5" y2="255.5" stroke="#000000" stroke-width="2.0" />
    <line x1="525.0" y1="231.0" x2="525.0" y2="266.0" stroke="#000000" stroke-width="2.0" />
</g>
<g>
    <line x1="77.0" y1="238.0" x2="80.5" y2="248.5" stroke="#000000" stroke-width="2.0" />
    <line x1="77.0" y1="238.0" x2="73.5" y2="248.5" stroke="#000000" stroke-width="2.0" />
    <line x1="77.0" y1="238.0" x2="77.0" y2="287.0" stroke="#000000" stroke-width="2.0" />
</g>
<line x1="133.0" y1="273.0" x2="371.0" y2="273.0" stroke="#000000" stroke-width="2.0" />
<line x1="455.0" y1="273.0" x2="679.0" y2="273.0" stroke="#000000" stroke-width="2.0" />
<g>
    <line x1="126.0" y1="287.0" x2="115.5" y2="290.5" stroke="#000000" stroke-width="2.0" />
    <line x1="126.0" y1="287.0" x2="115.5" y2="283.5" stroke="#000000" stroke-width="2.0" />
    <line x1="77.0" y1="287.0" x2="126.0" y2="287.0" stroke="#000000" stroke-width="2.0" />
</g>
<line x1="133.0" y1="273.0" x2="133.0" y2="301.0" stroke="#000000" stroke-width="2.0" />
<line x1="371.0" y1="273.0" x2="371.0" y2="301.0" stroke="#000000" stroke-width="2.0" />
<g>
    <line x1="378.0" y1="287.0" x2="388.5" y2="283.5" stroke="#000000" stroke-width="2.0" />
    <line x1="378.0" y1="287.0" x2="388.5" y2="290.5" stroke="#000000" stroke-width="2.0" />
    <line x1="448.0" y1="287.0" x2="437.5" y2="290.5" stroke="#000000" stroke-width="2.0" />
    <line x1="448.0" y1="287.0" x2="437.5" y2="283.5" stroke="#000000" stroke-width="2.0" />
    <line x1="378.0" y1="287.0" x2="448.0" y2="287.0" stroke="#000000" stroke-width="2.0" />
</g>
<line x1="455.0" y1="273.0" x2="455.0" y2="301.0" stroke="#000000" stroke-width="2.0" />
<line x1="679.0" y1="273.0" x2="679.0" y2="301.0" stroke="#000000" stroke-width="2.0" />
<line x1="133.0" y1="301.0" x2="189.0" y2="301.0" stroke="#000000" stroke-width="2.0" />
<line x1="189.0" y1="301.0" x2="371.0" y2="301.0" stroke="#000000" stroke-width="2.0" />
<line x1="455.0" y1="301.0" x2="511.0" y2="301.0" stroke="#000000" stroke-width="2.0" />
<line x1="511.0" y1="301.0" x2="679.0" y2="301.0" stroke="#000000" stroke-width="2.0" />
<line x1="133.0" y1="301.0" x2="133.0" y2="329.0" stroke="#000000" stroke-width="2.0" />
<line x1="189.0" y1="301.0" x2="189.0" y2="329.0" stroke="#000000" stroke-width="2.0" />
<line x1="371.0" y1="301.0" x2="371.0" y2="329.0" stroke="#000000" stroke-width="2.0" />
<line x1="455.0" y1="301.0" x2="455.0" y2="329.0" stroke="#000000" stroke-width="2.0" />
<line x1="511.0" y1="301.0" x2="511.0" y2="329.0" stroke="#000000" stroke-width="2.0" />
<line x1="679.0" y1="301.0" x2="679.0" y2="329.0" stroke="#000000" stroke-width="2.0" />
<line x1="133.0" y1="329.0" x2="189.0" y2="329.0" stroke="#000000" stroke-width="2.0" />
<line x1="189.0" y1="329.0" x2="371.0" y2="329.0" stroke="#000000" stroke-width="2.0" />
<line x1="455.0" y1="329.0" x2="511.0" y2="329.0" stroke="#000000" stroke-width="2.0" />
<line x1="511.0" y1="329.0" x2="679.0" y2="329.0" stroke="#000000" stroke-width="2.0" />
<line x1="133.0" y1="329.0" x2="133.0" y2="357.0" stroke="#000000" stroke-width="2.0" />
<line x1="189.0" y1="329.0" x2="189.0" y2="357.0" stroke="#000000" stroke-width="2.0" />
<line x1="371.0" y1="329.0" x2="371.0" y2="357.0" stroke="#000000" stroke-width="2.0" />
<line x1="133.0" y1="357.0" x2="189.0" y2="357.0" stroke="#000000" stroke-width="2.0" />
<line x1="189.0" y1="357.0" x2="371.0" y2="357.0" stroke="#000000" stroke-width="2.0" />
<line x1="133.0" y1="357.0" x2="133.0" y2="385.0" stroke="#000000" stroke-width="2.0" />
<line x1="189.0" y1="357.0" x2="189.0" y2="385.0" stroke="#000000" stroke-width="2.0" />
<line x1="371.0" y1="357.0" x2="371.0" y2="385.0" stroke="#000000" stroke-width="2.0" />
<line x1="133.0" y1="385.0" x2="189.0" y2="385.0" stroke="#000000" stroke-width="2.0" />
<line x1="189.0" y1="385.0" x2="371.0" y2="385.0" stroke="#000000" stroke-width="2.0" />
<text x="252.0" y="53.9" font-family="monospace" font-size="14.0" fill="#000000" >
  3
</text>
<text x="336.0" y="81.9" font-family="monospace" font-size="14.0" fill="#000000" >
  (1) 3 &lt; 5
</text>
<text x="42.0" y="165.9" font-family="monospace" font-size="14.0" fill="#000000" >
  &lt; 3
</text>
<text x="462.0" y="165.9" font-family="monospace" font-size="14.0" fill="#000000" >
  node
</text>
<text x="28.0" y="193.9" font-family="monospace" font-size="14.0" fill="#000000" >
  1
</text>
<text x="84.0" y="193.9" font-family="monospace" font-size="14.0" fill="#000000" >
  Kabul
</text>
<text x="378.0" y="193.9" font-family="monospace" font-size="14.0" fill="#000000" >
  6
</text>
<text x="28.0" y="221.9" font-family="monospace" font-size="14.0" fill="#000000" >
  2
</text>
<text x="84.0" y="221.9" font-family="monospace" font-size="14.0" fill="#000000" >
  Qandahar
</text>
<text x="364.0" y="249.9" font-family="monospace" font-size="14.0" fill="#000000" >
  (2) 5&lt;6
</text>
<text x="588.0" y="263.9" font-family="monospace" font-size="14.0" fill="#000000" >
  leaf
</text>
<text x="168.0" y="291.9" font-family="monospace" font-size="14.0" fill="#000000" >
  &lt; 6
</text>
<text x="154.0" y="319.9" font-family="monospace" font-size="14.0" fill="#000000" >
  3
</text>
<text x="210.0" y="319.9" font-family="monospace" font-size="14.0" fill="#000000" >
  Herat
</text>
<text x="476.0" y="319.9" font-family="monospace" font-size="14.0" fill="#000000" >
  6
</text>
<text x="154.0" y="347.9" font-family="monospace" font-size="14.0" fill="#000000" >
  4
</text>
<text x="210.0" y="347.9" font-family="monospace" font-size="14.0" fill="#000000" >
  Mazar
</text>
<text x="154.0" y="375.9" font-family="monospace" font-size="14.0" fill="#000000" >
  5
</text>
<text x="210.0" y="375.9" font-family="monospace" font-size="14.0" fill="#000000" >
  Amsterdam
</text>
<text x="392.0" y="375.9" font-family="monospace" font-size="14.0" fill="#000000" >
  (3) Find!
</text>
</svg>
